<svg xmlns="http://www.w3.org/2000/svg" width="217" height="46" viewBox="0 0 2048 512" version="1.1"><path d="M 181.500 82.983 C 177.074 84.132, 161 91.847, 161 92.823 C 161 93.284, 159.837 94.285, 158.415 95.046 C 156.993 95.807, 155.191 97.664, 154.410 99.174 C 153.630 100.683, 151.899 103.010, 150.565 104.344 C 149.231 105.678, 147.623 108.734, 146.992 111.135 C 146.361 113.536, 144.642 117.975, 143.172 121 C 140.500 126.500, 140.500 126.500, 140.500 251.544 C 140.500 371.350, 140.577 376.706, 142.343 379.400 C 143.356 380.947, 144.966 385.028, 145.920 388.468 C 149.177 400.212, 163.247 414.251, 174 416.485 C 175.925 416.885, 180.500 418.514, 184.168 420.106 C 190.577 422.888, 191.438 423, 206.371 423 C 221.529 423, 226.944 422.107, 227.043 419.589 C 227.067 418.990, 227.071 391.004, 227.052 357.397 C 227.017 296.628, 227.029 296.284, 229.111 294.397 C 230.926 292.753, 233.116 292.462, 245.545 292.213 C 261.893 291.885, 266.257 292.948, 268.094 297.702 C 268.830 299.609, 269.131 319.495, 269.039 360.160 C 268.905 419.820, 268.905 419.820, 271.175 421.410 C 273.148 422.792, 278.175 423, 309.657 423 C 346.814 423, 351.185 422.646, 364.500 418.560 C 367.250 417.716, 373.325 416.530, 378 415.923 C 382.675 415.316, 388.750 413.779, 391.500 412.508 C 394.250 411.236, 398.485 409.665, 400.910 409.016 C 403.336 408.367, 406.936 406.579, 408.910 405.042 C 410.885 403.505, 413.961 401.765, 415.747 401.177 C 417.533 400.588, 420.458 399.010, 422.247 397.671 C 424.036 396.332, 427.075 394.441, 429 393.469 C 430.925 392.497, 433.090 390.867, 433.811 389.845 C 434.532 388.824, 436.332 387.363, 437.811 386.598 C 439.290 385.833, 445.675 380.028, 452 373.698 C 467.094 358.592, 470.588 354.705, 472.602 350.772 C 473.523 348.972, 475.565 346.022, 477.139 344.215 C 478.712 342.409, 480 340.287, 480 339.500 C 480 338.713, 481.398 336.477, 483.107 334.531 C 484.816 332.584, 486.629 329.147, 487.136 326.892 C 487.642 324.637, 489.141 321.371, 490.465 319.634 C 491.854 317.814, 493.505 313.448, 494.364 309.329 C 495.184 305.398, 496.511 300.904, 497.313 299.341 C 501.637 290.919, 503.633 260.729, 501.643 233.838 C 500.334 216.154, 499.935 213.740, 497.682 209.838 C 496.228 207.322, 494.712 202.436, 494.072 198.204 C 493.374 193.596, 492.061 189.538, 490.506 187.188 C 489.151 185.141, 487.745 181.900, 487.381 179.984 C 486.594 175.847, 485.379 173.218, 482.998 170.500 C 482.035 169.400, 480.687 166.700, 480.003 164.500 C 479.318 162.300, 477.739 159.375, 476.494 158 C 475.248 156.625, 473.545 154.150, 472.709 152.500 C 471.874 150.850, 470.022 148.409, 468.595 147.076 C 467.168 145.742, 466 144.240, 466 143.737 C 466 141.650, 442.447 118.001, 440.369 118 C 439.746 118, 438.064 116.462, 436.630 114.582 C 435.143 112.632, 432.753 110.885, 431.064 110.514 C 429.436 110.156, 426.451 108.551, 424.432 106.946 C 422.412 105.341, 419.204 103.598, 417.302 103.073 C 415.400 102.548, 412.385 101.006, 410.603 99.646 C 408.821 98.287, 405.368 96.649, 402.931 96.006 C 400.494 95.363, 396.632 93.755, 394.349 92.434 C 391.635 90.863, 386.776 89.518, 380.313 88.547 C 374.876 87.730, 368.550 86.400, 366.255 85.590 C 363.961 84.780, 358.657 83.641, 354.469 83.059 C 345.580 81.823, 186.240 81.753, 181.500 82.983 M 1208 122.990 C 1201.125 124.613, 1194.503 125.954, 1193.285 125.970 C 1192.066 125.987, 1189.591 127.288, 1187.785 128.861 C 1185.978 130.435, 1183.018 132.482, 1181.207 133.409 C 1172.343 137.949, 1162.960 147.331, 1158.407 156.207 C 1157.477 158.018, 1155.920 160.524, 1154.945 161.775 C 1152.150 165.363, 1150.733 176.771, 1151.208 191.868 C 1151.524 201.925, 1152.080 206.418, 1153.328 209 C 1158.395 219.489, 1161.324 223.784, 1169.306 232.430 C 1176.592 240.322, 1178.899 242.193, 1182.797 243.370 C 1185.384 244.151, 1190.133 246.187, 1193.352 247.895 C 1196.570 249.603, 1200.194 251, 1201.406 251 C 1202.617 251, 1205.795 252.386, 1208.467 254.081 C 1211.410 255.947, 1216.019 257.675, 1220.160 258.464 C 1223.919 259.181, 1228.039 260.451, 1229.315 261.287 C 1230.590 262.122, 1234.836 263.760, 1238.749 264.925 C 1244.681 266.692, 1246.212 267.606, 1247.952 270.423 C 1249.101 272.281, 1250.727 274.065, 1251.565 274.387 C 1255.337 275.834, 1257.258 287.932, 1255.004 296.044 C 1254.463 297.994, 1252.482 301.079, 1250.602 302.901 C 1243.567 309.720, 1223.321 313.839, 1212.500 310.654 C 1209.750 309.844, 1204.839 308.433, 1201.586 307.517 C 1198.334 306.601, 1194.284 304.805, 1192.586 303.524 C 1190.889 302.244, 1187.864 300.522, 1185.865 299.697 C 1183.866 298.873, 1181.402 296.796, 1180.390 295.083 C 1178.284 291.517, 1171.974 287, 1169.099 287 C 1167.960 287, 1164.743 289.729, 1161.328 293.594 C 1158.122 297.220, 1153.119 302.729, 1150.208 305.837 C 1144.938 311.462, 1143.291 314.710, 1144.331 317.421 C 1144.632 318.204, 1148.618 321.551, 1153.189 324.857 C 1157.760 328.163, 1162.850 332.203, 1164.500 333.836 C 1166.150 335.468, 1168.625 337.131, 1170 337.532 C 1171.375 337.933, 1175.003 339.516, 1178.062 341.050 C 1181.121 342.584, 1185.396 344.157, 1187.562 344.547 C 1189.728 344.936, 1194.425 346.660, 1198 348.377 C 1204.470 351.485, 1204.577 351.500, 1221 351.500 C 1236.662 351.500, 1237.830 351.363, 1244 348.797 C 1247.575 347.310, 1252.750 345.600, 1255.500 344.998 C 1258.250 344.396, 1262.137 342.827, 1264.137 341.512 C 1266.137 340.197, 1269.458 338.418, 1271.517 337.557 C 1276.179 335.610, 1290.261 321.359, 1294.797 314 C 1299.257 306.763, 1300.287 299.751, 1299.850 279.595 C 1299.460 261.610, 1300.524 264.994, 1290.145 248.751 C 1286.696 243.354, 1280.118 237.783, 1274.346 235.371 C 1272.547 234.619, 1269.595 232.714, 1267.787 231.137 C 1265.979 229.560, 1263.375 227.936, 1262 227.528 C 1260.625 227.120, 1257.475 225.530, 1255 223.995 C 1252.525 222.460, 1248.058 220.696, 1245.074 220.075 C 1242.090 219.454, 1238.257 218.086, 1236.557 217.036 C 1234.858 215.985, 1230.099 213.913, 1225.983 212.430 C 1215.497 208.653, 1205.093 203.281, 1201.165 199.613 C 1196.035 194.825, 1194.802 191.648, 1194.834 183.308 C 1194.862 176.230, 1195.025 175.715, 1198.432 171.944 C 1200.394 169.772, 1202 167.600, 1202 167.118 C 1202 164.542, 1217.659 161.520, 1226.766 162.339 C 1240.586 163.582, 1249.400 165.664, 1254.479 168.885 C 1257.181 170.598, 1259.790 172, 1260.277 172 C 1260.765 172, 1263.039 173.516, 1265.332 175.368 C 1273.469 181.943, 1275.401 182.124, 1278.379 176.594 C 1279.373 174.748, 1281.495 172.271, 1283.093 171.089 C 1284.692 169.907, 1286 168.446, 1286 167.841 C 1286 167.237, 1287.463 165.010, 1289.250 162.893 C 1295.676 155.283, 1298 152.211, 1298 151.325 C 1298 150.111, 1288.688 141, 1287.447 141 C 1286.906 141, 1284.314 139.224, 1281.687 137.053 C 1279.060 134.883, 1275.919 132.799, 1274.706 132.422 C 1273.493 132.046, 1271.214 130.831, 1269.642 129.724 C 1268.070 128.616, 1262.895 126.885, 1258.142 125.876 C 1253.389 124.867, 1247.025 123.334, 1244 122.468 C 1233.666 119.510, 1222.029 119.679, 1208 122.990 M 605.872 127.653 C 604.728 129.032, 604.500 147.056, 604.500 236.117 C 604.500 337.303, 604.594 343.021, 606.285 344.713 C 607.936 346.366, 611.358 346.521, 651.785 346.774 C 690.859 347.019, 696.861 346.842, 708.322 345.109 C 718.167 343.620, 722.026 342.587, 724.938 340.660 C 727.024 339.279, 730.704 337.621, 733.116 336.976 C 746.057 333.511, 774.288 311.039, 777.665 301.514 C 778.442 299.322, 780.153 296.397, 781.468 295.014 C 782.782 293.631, 784.169 291.150, 784.550 289.500 C 784.932 287.850, 786.513 284.475, 788.064 282 C 790.197 278.596, 791.150 275.360, 791.974 268.716 C 792.574 263.884, 793.500 257.635, 794.032 254.829 C 796.933 239.532, 793.364 204.499, 787.783 193.500 C 786.388 190.750, 784.944 187.101, 784.575 185.391 C 784.205 183.680, 782.575 181.009, 780.951 179.453 C 779.328 177.898, 778 176.084, 778 175.421 C 778 171.990, 758.361 151.276, 752 147.999 C 750.075 147.007, 747.534 145.077, 746.354 143.710 C 745.173 142.342, 742.473 140.653, 740.354 139.956 C 738.234 139.258, 734.924 137.647, 732.998 136.375 C 730.983 135.044, 726.736 133.655, 722.998 133.104 C 719.424 132.577, 712.563 130.763, 707.752 129.073 C 699.004 126, 699.004 126, 653.124 126 C 611.672 126, 607.112 126.160, 605.872 127.653 M 234.500 137.906 C 229.847 139.064, 227.003 140.906, 226.966 142.785 C 226.551 163.923, 226.794 198.858, 227.362 199.777 C 227.778 200.450, 230.067 201, 232.449 201 C 235.998 201, 237.864 200.202, 242.782 196.581 C 250.765 190.705, 253.556 189.364, 259.500 188.549 C 266.287 187.619, 268.007 186.110, 268.829 180.364 C 269.327 176.880, 270.105 175.258, 271.643 174.491 C 272.985 173.821, 282.566 173.479, 297.634 173.561 C 320.387 173.685, 321.966 173.820, 331.500 176.447 C 349.073 181.291, 354.230 183.036, 356.690 184.971 C 358.012 186.011, 360.336 187.134, 361.853 187.468 C 363.444 187.817, 365.354 189.329, 366.363 191.037 C 367.325 192.667, 368.549 194, 369.081 194 C 369.614 194, 370.442 195.031, 370.921 196.292 C 371.400 197.553, 373.752 199.904, 376.146 201.518 C 378.541 203.132, 381.568 205.470, 382.873 206.713 C 385.545 209.258, 390.348 210.938, 397 211.654 C 401.761 212.166, 406.006 215.542, 405.993 218.806 C 405.986 220.599, 403.717 224.321, 400.659 227.554 C 397.063 231.355, 391.971 240.481, 392.603 241.990 C 393.809 244.868, 394.180 262.515, 393.119 266.500 C 390.477 276.417, 385.777 288.477, 383.496 291.187 C 382.123 292.819, 381 294.771, 381 295.525 C 381 296.280, 379.830 298.158, 378.400 299.698 C 376.970 301.239, 374.140 304.300, 372.110 306.500 C 364.548 314.696, 358.204 318.605, 342.968 324.455 C 339.375 325.834, 334.875 327.226, 332.968 327.547 C 324.472 328.979, 325 328.497, 325 334.824 C 325 340.988, 324.419 341.897, 315.111 350.313 C 312.439 352.729, 312 353.814, 312 358.006 C 312 361.916, 312.442 363.196, 314.223 364.443 C 317.391 366.663, 324.856 366.388, 336.500 363.623 C 342 362.317, 348.607 360.980, 351.182 360.652 C 353.757 360.325, 358.857 358.469, 362.515 356.528 C 366.173 354.588, 369.851 353, 370.688 353 C 371.525 353, 374.211 351.650, 376.657 349.999 C 379.102 348.348, 382.436 346.309, 384.065 345.466 C 387.944 343.460, 401.060 330.974, 406.615 324 C 409.025 320.975, 411.631 317.825, 412.407 317 C 413.183 316.175, 414.406 314.150, 415.125 312.500 C 415.844 310.850, 417.460 308.108, 418.716 306.406 C 419.972 304.704, 421 302.683, 421 301.914 C 421 301.146, 422.608 297.264, 424.573 293.287 C 429.904 282.498, 431.622 266.335, 430.197 240.368 C 429.199 222.162, 429.004 220.950, 426.173 215.343 C 424.537 212.101, 422.663 207.436, 422.010 204.975 C 421.356 202.514, 419.970 199.581, 418.931 198.457 C 417.891 197.333, 416.527 194.858, 415.900 192.957 C 415.274 191.056, 413.492 188.150, 411.942 186.500 C 410.392 184.850, 404.995 178.864, 399.947 173.198 C 394.900 167.532, 389.585 162.142, 388.135 161.222 C 386.686 160.301, 385.121 158.941, 384.658 158.199 C 384.196 157.457, 381.721 155.955, 379.158 154.861 C 376.596 153.767, 373.375 151.814, 372 150.522 C 370.625 149.230, 367.479 147.638, 365.009 146.983 C 362.539 146.329, 359.335 144.951, 357.890 143.922 C 353.813 141.019, 350.989 140.224, 340.362 138.988 C 329.123 137.680, 239.104 136.761, 234.500 137.906 M 1745.858 140.038 C 1739.438 140.788, 1735.029 142.306, 1734.973 143.785 C 1734.958 144.178, 1734.774 154.126, 1734.563 165.892 C 1734.056 194.119, 1735.304 192.329, 1715.678 193 C 1696.757 193.647, 1697.607 192.861, 1697.168 210.140 C 1696.986 217.330, 1697.105 224.282, 1697.433 225.589 C 1698.494 229.816, 1702.643 231, 1716.395 231 C 1735.671 231, 1734.343 228.238, 1734.482 268.607 C 1734.595 301.500, 1734.595 301.500, 1737.861 311 C 1739.657 316.225, 1741.945 321.400, 1742.946 322.500 C 1743.947 323.600, 1745.471 325.896, 1746.332 327.602 C 1747.193 329.308, 1751.077 333.522, 1754.962 336.966 C 1760.659 342.017, 1764.006 344.025, 1772.263 347.346 C 1782.472 351.451, 1782.536 351.463, 1795.500 351.402 C 1807.815 351.345, 1808.948 351.166, 1817 347.994 C 1821.675 346.152, 1826.122 344.171, 1826.882 343.591 C 1829.762 341.392, 1826.626 318.697, 1822.625 312.787 C 1820.183 309.179, 1819.721 309.119, 1805 310.480 C 1795.869 311.324, 1791.703 308.869, 1787.250 300.018 C 1784 293.558, 1784 293.558, 1784 264.351 C 1784 240.529, 1784.260 234.882, 1785.412 233.731 C 1786.464 232.679, 1791.176 232.162, 1803.892 231.705 C 1813.279 231.368, 1821.821 230.631, 1822.874 230.067 C 1825.971 228.410, 1827 223.482, 1827 210.305 C 1827 198.477, 1826.888 197.797, 1824.545 195.455 C 1822.122 193.031, 1821.865 193, 1804.143 193 C 1786.196 193, 1786.196 193, 1785.098 189.851 C 1784.434 187.946, 1783.994 178.164, 1783.985 165.101 C 1783.976 153.220, 1783.630 142.966, 1783.214 142.313 C 1782.799 141.659, 1781.202 140.647, 1779.665 140.063 C 1776.526 138.869, 1755.998 138.854, 1745.858 140.038 M 652.250 169.149 C 651.275 170.125, 651.003 185.127, 651.015 237.450 C 651.024 274.327, 651.424 305.121, 651.905 305.880 C 652.630 307.025, 657.185 307.142, 678.639 306.569 C 701.601 305.956, 704.836 305.665, 707.500 303.978 C 709.150 302.933, 712.104 301.194, 714.064 300.113 C 720.625 296.498, 733 287.980, 733 287.079 C 733 286.590, 734.575 284.304, 736.500 282 C 738.425 279.696, 740 277.090, 740 276.209 C 740 275.328, 741.166 272.924, 742.592 270.867 C 744.018 268.810, 745.558 265.411, 746.015 263.313 C 747.556 256.241, 748.174 231.684, 747.090 220.606 C 746.179 211.303, 745.594 209.039, 743.082 205.106 C 741.465 202.573, 739.856 199.344, 739.508 197.930 C 738.372 193.328, 726.689 180.957, 720.500 177.804 C 718.300 176.684, 715.709 175.071, 714.741 174.221 C 713.774 173.370, 709.274 171.770, 704.741 170.664 C 694.441 168.150, 654.401 166.995, 652.250 169.149 M 291.440 185.145 C 284.576 191.637, 284.429 193.773, 290.402 200.250 C 294.770 204.985, 296.377 205.608, 303 205.131 C 306.618 204.870, 312.994 197.385, 312.997 193.394 C 313.001 188.967, 307.085 181.467, 302.934 180.637 C 297.657 179.581, 297.086 179.805, 291.440 185.145 M 880.256 189.007 C 873.720 189.577, 871.160 190.290, 867.897 192.449 C 865.634 193.947, 861.469 195.852, 858.641 196.684 C 855.814 197.515, 852.825 198.773, 852 199.481 C 851.175 200.188, 848.617 201.713, 846.316 202.870 C 844.015 204.027, 841.540 205.817, 840.816 206.848 C 840.092 207.879, 837.154 211.372, 834.287 214.611 C 825.083 225.009, 821.999 229.145, 821.432 231.853 C 820.698 235.358, 818.491 239.916, 816.035 243 C 813.276 246.464, 811.915 264.506, 813.118 281.668 C 813.945 293.465, 814.299 295.048, 817.509 301.299 C 819.429 305.038, 821 308.735, 821 309.514 C 821 311.051, 833.028 325.225, 840.111 332.036 C 842.525 334.357, 846.071 336.925, 847.992 337.742 C 849.912 338.560, 852.738 340.284, 854.271 341.575 C 855.804 342.865, 858.733 344.174, 860.779 344.484 C 862.826 344.794, 867.200 346.499, 870.500 348.274 C 876.500 351.500, 876.500 351.500, 893 351.464 C 909.500 351.427, 909.500 351.427, 917.626 347.714 C 922.095 345.671, 926.095 344, 926.515 344 C 926.935 344, 929.378 342.708, 931.944 341.129 C 934.510 339.550, 937.699 337.913, 939.029 337.491 C 941.982 336.554, 952.811 327.170, 953.521 324.934 C 953.803 324.046, 955.074 322.763, 956.347 322.082 C 957.620 321.401, 959.477 319.416, 960.475 317.672 C 961.472 315.927, 963.100 313.596, 964.092 312.491 C 965.085 311.386, 967.792 305.986, 970.108 300.491 C 974.319 290.500, 974.319 290.500, 974.758 273 C 975.094 259.623, 974.845 254.086, 973.703 249.500 C 971.515 240.708, 968.091 231.785, 966.030 229.500 C 965.037 228.400, 963.266 225.588, 962.093 223.250 C 960.919 220.912, 959.523 219, 958.989 219 C 958.455 219, 957.002 217.427, 955.759 215.504 C 954.517 213.582, 952.735 211.758, 951.800 211.453 C 950.864 211.147, 949.140 209.345, 947.968 207.448 C 946.796 205.552, 945.266 204, 944.568 204 C 943.871 204, 941.480 202.682, 939.255 201.070 C 937.031 199.459, 932.962 197.472, 930.214 196.656 C 927.466 195.840, 923.469 194.015, 921.332 192.601 C 915.356 188.646, 899.896 187.293, 880.256 189.007 M 1059.920 189.032 C 1054.490 189.534, 1050.661 190.584, 1046.420 192.733 C 1043.164 194.383, 1038.025 196.972, 1035 198.487 C 1031.975 200.001, 1027.871 202.068, 1025.880 203.080 C 1022.326 204.887, 1010.259 217.085, 1007.163 222 C 1006.297 223.375, 1004.331 225.978, 1002.794 227.785 C 1001.257 229.591, 1000 231.623, 1000 232.300 C 1000 232.976, 998.538 236.448, 996.750 240.015 C 993.500 246.500, 993.500 246.500, 993.171 269.006 C 992.819 293.102, 992.667 292.047, 998.481 305.842 C 1003.771 318.393, 1017.454 332.871, 1030.248 339.455 C 1034.844 341.819, 1040.155 344.076, 1042.052 344.468 C 1043.948 344.861, 1047.199 346.280, 1049.275 347.622 C 1054.038 350.700, 1060.842 352, 1072.189 352 C 1081.438 352, 1093.959 349.773, 1097.590 347.482 C 1098.740 346.757, 1101.665 345.637, 1104.090 344.994 C 1106.516 344.350, 1110.486 342.289, 1112.914 340.412 C 1115.342 338.535, 1117.700 337, 1118.155 337 C 1118.610 337, 1121.046 335.425, 1123.568 333.500 C 1126.090 331.575, 1128.724 330, 1129.422 330 C 1131.569 330, 1134 326.496, 1134 323.399 C 1134 320.980, 1132.085 318.572, 1123.241 309.872 C 1117.323 304.051, 1111.575 299, 1110.468 298.648 C 1107.431 297.685, 1101.851 299.658, 1099.547 302.512 C 1097.470 305.084, 1087.670 309.222, 1078.750 311.292 C 1073.569 312.495, 1068.811 311.749, 1059.247 308.235 C 1052.619 305.800, 1044.824 297.961, 1040.120 289 C 1037.006 283.070, 1036.665 281.562, 1036.227 271.795 C 1035.747 261.090, 1035.747 261.090, 1039.799 252.680 C 1042.028 248.055, 1044.557 244, 1045.420 243.669 C 1046.283 243.338, 1047.887 241.590, 1048.985 239.784 C 1050.936 236.576, 1058.306 232.706, 1067.948 229.826 C 1073.412 228.195, 1084.419 229.195, 1087.707 231.622 C 1089.243 232.756, 1092.115 234.216, 1094.089 234.866 C 1096.062 235.517, 1099.187 237.163, 1101.033 238.524 C 1105.054 241.491, 1108.080 241.674, 1110.417 239.091 C 1111.367 238.042, 1113.483 236.628, 1115.119 235.951 C 1116.756 235.273, 1118.760 233.432, 1119.573 231.859 C 1120.386 230.287, 1121.461 229, 1121.962 229 C 1123.336 229, 1135 217.457, 1135 216.097 C 1135 213.920, 1125.584 204.817, 1121.740 203.279 C 1119.651 202.443, 1117.509 200.951, 1116.980 199.963 C 1116.452 198.975, 1113.652 197.391, 1110.760 196.443 C 1107.867 195.494, 1104.315 193.888, 1102.866 192.874 C 1101.417 191.859, 1098.042 190.604, 1095.366 190.085 C 1088.599 188.773, 1069.010 188.191, 1059.920 189.032 M 1404 188.955 C 1396.586 189.601, 1393.678 190.608, 1389.203 194.080 C 1387.940 195.060, 1385.634 196.141, 1384.079 196.483 C 1382.524 196.824, 1380.216 198.205, 1378.951 199.552 C 1375.885 202.816, 1373.382 202.640, 1371.515 199.030 C 1368.986 194.138, 1367.058 193.691, 1348.673 193.733 C 1332.770 193.769, 1331.659 193.896, 1329.642 195.914 C 1327.500 198.056, 1327.500 198.056, 1327.500 302.616 C 1327.500 407.177, 1327.500 407.177, 1329.861 409.088 C 1331.993 410.815, 1333.993 411, 1350.488 411 C 1366.271 411, 1368.942 410.775, 1370.128 409.344 C 1371.224 408.022, 1371.524 401.088, 1371.618 374.909 C 1371.683 356.880, 1372.006 341.426, 1372.337 340.565 C 1373.190 338.341, 1375.631 338.625, 1379.317 341.376 C 1381.068 342.683, 1384.300 344.328, 1386.500 345.032 C 1388.700 345.736, 1392.267 347.480, 1394.427 348.906 C 1398.120 351.346, 1399.073 351.498, 1410.427 351.458 C 1419.199 351.428, 1423.594 350.971, 1426.500 349.787 C 1428.700 348.892, 1433.543 347.039, 1437.263 345.671 C 1440.983 344.303, 1445.611 341.793, 1447.548 340.092 C 1449.485 338.391, 1451.664 337, 1452.390 337 C 1453.612 337, 1460.938 329.554, 1466.656 322.500 C 1467.994 320.850, 1470.373 317.918, 1471.943 315.983 C 1473.513 314.049, 1475.338 310.457, 1476 308 C 1476.661 305.544, 1478.344 301.282, 1479.738 298.530 C 1483.202 291.694, 1484.208 281.767, 1483.416 262.237 C 1482.772 246.355, 1482.686 245.869, 1479.766 241.460 C 1478.121 238.977, 1476.374 235.160, 1475.884 232.979 C 1474.807 228.187, 1468.630 219.862, 1459.178 210.466 C 1449.348 200.693, 1446.248 198.448, 1440.037 196.603 C 1437.045 195.715, 1433.414 193.855, 1431.968 192.470 C 1429.828 190.419, 1427.774 189.771, 1420.920 188.983 C 1416.289 188.451, 1412.275 188.080, 1412 188.159 C 1411.725 188.237, 1408.125 188.596, 1404 188.955 M 1565.358 189.908 C 1563.630 190.345, 1560.664 191.663, 1558.767 192.835 C 1556.869 194.008, 1552.340 195.887, 1548.701 197.011 C 1545.062 198.135, 1541.811 199.496, 1541.477 200.036 C 1541.144 200.577, 1539.389 201.802, 1537.578 202.759 C 1532.162 205.623, 1515.403 224.354, 1513.401 229.781 C 1512.444 232.377, 1511.120 235.175, 1510.459 236 C 1507.870 239.230, 1506.773 242.578, 1504.454 254.313 C 1501.555 268.991, 1501.413 276.523, 1503.886 284.500 C 1504.909 287.800, 1506.051 293.005, 1506.422 296.066 C 1506.794 299.127, 1507.969 302.952, 1509.035 304.566 C 1512.622 310.001, 1512.901 310.490, 1514.636 314.397 C 1515.588 316.540, 1520.447 322.466, 1525.434 327.566 C 1532.330 334.619, 1535.457 337.097, 1538.500 337.922 C 1540.700 338.517, 1544.480 340.354, 1546.900 342.002 C 1549.321 343.651, 1552.246 345, 1553.400 345.001 C 1554.555 345.001, 1558.425 346.427, 1562 348.168 C 1568.153 351.166, 1569.250 351.359, 1582.545 351.774 C 1595.844 352.189, 1596.986 352.069, 1604.045 349.528 C 1608.145 348.051, 1613.975 346.049, 1617 345.077 C 1620.025 344.106, 1624.222 342.135, 1626.326 340.699 C 1628.430 339.262, 1631.130 337.787, 1632.326 337.421 C 1638.251 335.608, 1660 313.864, 1660 309.754 C 1660 308.944, 1661.378 305.699, 1663.062 302.543 C 1665.405 298.152, 1666.458 294.301, 1667.543 286.152 C 1669.412 272.108, 1669.350 267.612, 1667.104 254.500 C 1665.179 243.261, 1661.644 234.112, 1656.910 228.117 C 1655.584 226.438, 1653.150 223.181, 1651.500 220.878 C 1647.260 214.959, 1640.372 208.356, 1634.316 204.405 C 1631.465 202.545, 1628.859 200.580, 1628.524 200.039 C 1628.189 199.497, 1625.122 198.183, 1621.708 197.118 C 1618.293 196.054, 1613.250 193.904, 1610.500 192.341 C 1605.548 189.527, 1605.324 189.498, 1587 189.307 C 1576.825 189.200, 1567.086 189.471, 1565.358 189.908 M 252.961 197.829 C 251.058 198.836, 247.250 200.920, 244.500 202.461 C 234.231 208.217, 227.575 211.147, 222.611 212.099 C 205.100 215.457, 199.551 218.725, 202.050 224.209 C 203.449 227.280, 206.846 229, 211.512 229 C 213.898 229, 215.981 229.923, 218.408 232.053 C 222.369 235.531, 226.616 237, 232.710 237 C 236.185 237, 237.540 237.606, 240.355 240.422 C 244.654 244.721, 248.840 245.432, 265.853 244.754 C 284.833 243.997, 288 242.111, 288 231.565 C 288 224.536, 286.876 220.582, 284.002 217.500 C 282.976 216.400, 280.790 212.800, 279.146 209.500 C 277.501 206.200, 274.597 201.813, 272.693 199.750 C 269.385 196.168, 268.944 196, 262.827 196 C 258.550 196, 255.273 196.608, 252.961 197.829 M 326.805 200.271 C 324.246 202.619, 321.823 205.882, 321.418 207.521 C 321.014 209.159, 319.206 212.314, 317.400 214.532 C 315.594 216.750, 313.605 219.900, 312.981 221.532 C 311.452 225.528, 312.553 233.567, 315.300 238.465 C 318.216 243.663, 321.827 244.609, 338.537 244.548 C 350.758 244.503, 351.906 244.328, 356.879 241.750 C 359.839 240.216, 363.804 239, 365.849 239 C 371.687 239, 375.761 237.394, 379.252 233.717 C 381.435 231.417, 383.811 230.069, 386.500 229.607 C 392.323 228.605, 395.387 227.211, 396.825 224.908 C 399.987 219.845, 393.629 215.084, 380.506 212.688 C 375.194 211.719, 369.258 209.857, 366.006 208.141 C 342.974 195.985, 343.009 196, 337.135 196 C 331.843 196, 331.140 196.291, 326.805 200.271 M 296.465 208.976 C 292.583 210.503, 292.174 212.120, 292.043 226.500 C 291.839 248.777, 292.020 249.990, 295.910 252.288 C 299.650 254.497, 302.219 254.453, 305.086 252.131 C 307.159 250.453, 307.511 248.914, 308.533 237.037 C 309.860 221.624, 309.105 214.606, 305.779 211.421 C 303.094 208.850, 299.311 207.857, 296.465 208.976 M 882.500 231.049 C 880.850 232.169, 878.010 233.730, 876.188 234.518 C 872.223 236.232, 862 246.432, 862 248.674 C 862 249.545, 860.875 253.377, 859.500 257.189 C 856.052 266.747, 856.263 272.290, 860.553 284.900 C 863.724 294.218, 864.633 295.812, 869.296 300.227 C 874.965 305.594, 885.082 310.772, 891.667 311.677 C 894.854 312.115, 897.886 311.507, 904.558 309.093 C 911.737 306.495, 914.211 305.006, 918.534 300.683 C 921.423 297.794, 925.410 292.371, 927.393 288.632 C 930.967 281.896, 931 281.722, 930.994 269.667 C 930.989 260.322, 930.610 256.804, 929.357 254.500 C 928.461 252.850, 927.044 250.150, 926.209 248.500 C 925.375 246.850, 923.264 244.150, 921.519 242.500 C 919.775 240.850, 917.932 238.823, 917.424 237.995 C 916.916 237.167, 913.125 234.802, 909 232.740 C 902.198 229.340, 900.755 228.992, 893.500 229.002 C 887.114 229.011, 884.895 229.424, 882.500 231.049 M 1395.598 229.719 C 1390.476 231.029, 1380.689 237.516, 1378.180 241.264 C 1376.706 243.467, 1374.768 246.363, 1373.874 247.701 C 1371.687 250.970, 1368.773 266.063, 1369.425 270.742 C 1370.372 277.543, 1372 291.423, 1372 292.703 C 1372 293.393, 1374.460 296.378, 1377.466 299.337 C 1381.801 303.604, 1384.816 305.469, 1392.048 308.358 C 1397.063 310.361, 1402.450 312, 1404.019 312 C 1405.589 312, 1410.294 310.683, 1414.475 309.073 C 1421.653 306.309, 1425.554 303.225, 1433.096 294.356 C 1434.484 292.724, 1437.853 280.113, 1438.581 273.827 C 1439.440 266.408, 1434.942 246.149, 1431.959 244 C 1430.814 243.175, 1428.198 240.925, 1426.147 239 C 1424.095 237.075, 1420.882 234.600, 1419.007 233.500 C 1417.131 232.400, 1414.675 230.944, 1413.549 230.265 C 1411.567 229.070, 1399.561 228.705, 1395.598 229.719 M 1576.791 229.924 C 1575.302 230.408, 1572.773 231.738, 1571.172 232.878 C 1569.571 234.018, 1567.190 235.359, 1565.881 235.859 C 1564.571 236.358, 1561.002 238.826, 1557.948 241.343 C 1552.622 245.733, 1552.287 246.298, 1549.698 255.260 C 1546.056 267.870, 1546.208 272.965, 1550.621 286.229 C 1553.457 294.754, 1554.811 297.464, 1556.871 298.736 C 1558.317 299.629, 1560.850 301.580, 1562.500 303.070 C 1564.150 304.560, 1566.625 306.108, 1568 306.509 C 1569.375 306.910, 1572.917 308.368, 1575.871 309.749 C 1580.368 311.851, 1582.164 312.163, 1586.913 311.667 C 1590.031 311.341, 1595.158 309.936, 1598.304 308.544 C 1605.654 305.294, 1616.459 296.808, 1617.770 293.256 C 1624.863 274.042, 1625.491 267.311, 1621.139 257.168 C 1619.566 253.500, 1618.043 249.825, 1617.754 249 C 1617.464 248.175, 1615.333 245.131, 1613.018 242.236 C 1607.350 235.150, 1596.748 230.036, 1586.500 229.446 C 1582.650 229.224, 1578.281 229.439, 1576.791 229.924 M 325.188 250.517 C 322.181 251.823, 321.905 252.299, 322.188 255.686 C 322.480 259.172, 322.828 259.534, 327.495 261.198 C 333.108 263.200, 335.426 262.844, 337.423 259.674 C 340.050 255.502, 340.217 253.217, 338.051 251.051 C 335.611 248.611, 330.102 248.382, 325.188 250.517 M 262.750 251.080 C 260.570 252.350, 260.474 256.805, 262.564 259.788 C 263.424 261.015, 266.585 263.592, 269.588 265.513 C 275.048 269.006, 275.048 269.006, 273.524 271.953 C 271.497 275.874, 271.602 278.265, 274 282.739 C 275.100 284.791, 276 287.007, 276 287.663 C 276 289.803, 281.172 293, 284.635 293 C 286.486 293, 288 293.418, 288 293.929 C 288 295.093, 285.147 298, 284.005 298 C 283.537 298, 281.800 299.139, 280.145 300.532 C 277.529 302.733, 277.206 303.549, 277.670 306.782 C 278.670 313.750, 279.954 317.549, 282.456 320.940 C 284.816 324.140, 284.920 324.815, 284.330 333.133 C 283.628 343.023, 284.413 345, 289.041 345 C 294.494 345, 295 344.327, 295 337.071 C 295 331.172, 295.361 329.879, 297.972 326.428 C 299.607 324.268, 300.957 321.330, 300.972 319.899 C 300.987 318.469, 301.501 315.861, 302.114 314.104 C 303.037 311.457, 302.941 310.592, 301.557 309.063 C 300.573 307.975, 299.088 307.426, 297.943 307.725 C 294.275 308.684, 295.904 305.434, 299.750 304.121 C 301.813 303.417, 305.300 301.993, 307.500 300.956 C 309.700 299.920, 313.143 298.818, 315.152 298.509 C 317.852 298.093, 320.395 296.399, 324.902 292.016 C 330.770 286.310, 331 285.897, 331 281.063 C 331 269.929, 325.336 263.538, 311.280 258.815 C 304.151 256.419, 301.295 256, 292.102 256 C 281.766 256, 281.112 255.872, 276.900 253.018 C 272.279 249.887, 266.223 249.057, 262.750 251.080 M 285.323 270.077 C 284.209 271.191, 285.048 276.987, 287.055 282.033 C 287.609 283.426, 288.161 286.351, 288.281 288.533 C 288.402 290.715, 288.844 292.418, 289.264 292.318 C 289.684 292.218, 292.609 291.609, 295.764 290.964 C 298.919 290.319, 302.175 289.214, 303 288.507 C 303.825 287.801, 305.916 286.922, 307.646 286.555 C 311.501 285.736, 313.779 283.353, 314.592 279.289 C 315.397 275.264, 312.343 272.005, 307.750 271.988 C 305.962 271.982, 302.025 271.312, 299 270.500 C 292.492 268.753, 286.822 268.578, 285.323 270.077 M 295.200 277.200 C 293.461 278.939, 293.728 282.749, 295.666 283.833 C 298.593 285.471, 306 282.393, 306 279.538 C 306 276.744, 297.497 274.903, 295.200 277.200 M 315.231 303.359 C 313.983 304.037, 311.624 306.214, 309.989 308.197 C 306.232 312.755, 303.955 325.220, 305.898 330.594 C 306.618 332.586, 306.826 335.828, 306.428 338.835 C 305.829 343.344, 305.968 343.855, 307.957 344.486 C 312.473 345.920, 314.673 344.401, 315.362 339.376 C 316.294 332.578, 316.143 327.206, 315 326.500 C 313.414 325.520, 313.751 324.601, 318.062 318.145 C 321.302 313.294, 322.061 311.319, 321.812 308.395 C 321.414 303.716, 318.575 301.544, 315.231 303.359 M 299.017 346.263 C 297.651 346.967, 296.111 348.744, 295.595 350.212 C 294.226 354.103, 296.218 356.067, 301.092 355.628 C 306.546 355.136, 307.812 353.789, 307.082 349.257 C 306.587 346.185, 306.023 345.453, 303.988 345.241 C 302.620 345.099, 300.382 345.559, 299.017 346.263" stroke="none" fill="#313ba5" fill-rule="evenodd"/></svg>